<?xml version="1.0" encoding="UTF-8"?>
<svg version="1.1" xmlns="http://www.w3.org/2000/svg" width="577" height="433">
<path d="M0 0 C190.41 0 380.82 0 577 0 C577 142.89 577 285.78 577 433 C386.59 433 196.18 433 0 433 C0 290.11 0 147.22 0 0 Z " fill="#EDEDEE" transform="translate(0,0)"/>
<path d="M0 0 C3.5625 0.5 3.5625 0.5 6.5 2.5625 C9.0868831 6.24684866 9.19401199 8.07941605 8.5625 12.5 C7.1875 15.125 7.1875 15.125 5.5625 17.5 C4.86427383 19.15369357 4.18751395 20.81727014 3.5625 22.5 C4.119375 22.7475 4.67625 22.995 5.25 23.25 C9.49734688 25.54586318 12.84665125 27.9004778 14.5625 32.5 C14.78955078 35.79980469 14.78955078 35.79980469 14.7578125 39.671875 C14.7549826 40.3542926 14.75215271 41.03671021 14.74923706 41.73980713 C14.73808098 43.91005307 14.71298557 46.07987971 14.6875 48.25 C14.67746426 49.72525444 14.66833944 51.20051537 14.66015625 52.67578125 C14.63815687 56.28398942 14.60365883 59.89195375 14.5625 63.5 C11.9225 63.5 9.2825 63.5 6.5625 63.5 C6.5625 62.18 6.5625 60.86 6.5625 59.5 C5.634375 60.139375 4.70625 60.77875 3.75 61.4375 C-1.29791761 64.70379963 -5.56772044 65.10100132 -11.4375 64.5 C-14.875 63 -14.875 63 -17.4375 61.5 C-19.53181517 61.26528324 -19.53181517 61.26528324 -20.84765625 62.8984375 C-21.39292969 63.55070312 -21.93820312 64.20296875 -22.5 64.875 C-23.13292969 65.61621094 -23.76585937 66.35742188 -24.41796875 67.12109375 C-25.08441406 67.90613281 -25.75085938 68.69117188 -26.4375 69.5 C-32.86671482 76.95357609 -39.74812659 83.88502198 -46.76123047 90.78686523 C-47.47939941 91.49657471 -48.19756836 92.20628418 -48.9375 92.9375 C-49.5871875 93.57558594 -50.236875 94.21367187 -50.90625 94.87109375 C-52.52612344 96.43826827 -52.52612344 96.43826827 -53.4375 98.5 C-52.385625 98.7475 -51.33375 98.995 -50.25 99.25 C-45.44737616 100.64712694 -42.57026704 102.93756271 -39.625 107 C-38.4375 110.5 -38.4375 110.5 -38.4375 122.5 C-53.7825 122.995 -53.7825 122.995 -69.4375 123.5 C-66.39093069 128.85446316 -66.39093069 128.85446316 -61.4375 131.5 C-55.84990505 132.24162624 -52.12026228 131.80547926 -47.4375 128.5 C-46.4475 128.5 -45.4575 128.5 -44.4375 128.5 C-42.75 131 -42.75 131 -41.4375 133.5 C-47.66849703 139.28592581 -52.67310437 139.76528045 -61.04296875 139.65234375 C-66.57766148 139.30021811 -70.58618641 137.45006522 -74.4375 133.5 C-77.4747357 128.56866402 -79.80693767 124.40044733 -79.4375 118.5 C-82.0606939 119.34419983 -82.0606939 119.34419983 -84.4375 121.5 C-85.23384381 124.54330814 -85.22818949 127.55405627 -85.25 130.6875 C-85.27513672 131.53248047 -85.30027344 132.37746094 -85.32617188 133.24804688 C-85.38502734 135.3315305 -85.41412995 137.41581627 -85.4375 139.5 C-89.14736572 139.78783441 -92.73748705 139.95251957 -96.4375 139.5 C-99.125 137 -99.125 137 -100.4375 134.5 C-104.50122948 135.12748764 -107.74590577 136.4595768 -111.4375 138.25 C-134.17416919 148.97240649 -134.17416919 148.97240649 -146.4375 147.5 C-150.10184369 145.36246618 -151.82584626 143.35694912 -153.4375 139.5 C-155.86466744 127.00605615 -148.7498521 116.32487093 -142.125 106.3125 C-141.67511719 105.67957031 -141.22523438 105.04664063 -140.76171875 104.39453125 C-137.59378505 99.86223672 -136.05836258 96.799699 -135.75 91.1875 C-135.68425781 90.11886719 -135.61851562 89.05023438 -135.55078125 87.94921875 C-135.51339844 87.14097656 -135.47601563 86.33273438 -135.4375 85.5 C-134.85484375 85.57863281 -134.2721875 85.65726562 -133.671875 85.73828125 C-129.92445578 85.85023245 -126.90577087 85.66156337 -123.86669922 83.25732422 C-120.60256285 80.08945731 -117.69549056 76.62172536 -114.81396484 73.10742188 C-113.48969894 71.5609574 -112.03653538 70.12778295 -110.58203125 68.703125 C-108.20499543 66.77356558 -108.20499543 66.77356558 -108.4375 64.5 C-109.01757812 64.31566406 -109.59765625 64.13132813 -110.1953125 63.94140625 C-116.99957609 61.41507076 -120.13664132 57.90130808 -123.4375 51.5 C-125.30532568 45.89652297 -125.02179086 40.34512904 -123.25 34.75 C-119.92291835 28.78419842 -116.77590909 25.14163636 -110.4375 22.5 C-104.09185054 21.61661492 -97.50737276 21.28661969 -91.875 24.6875 C-87.8664724 27.72400267 -84.06016635 30.63200094 -82.4375 35.5 C-82.39795766 37.83299825 -82.39348268 40.16708189 -82.4375 42.5 C-78.73284424 40.03022949 -78.78884453 38.63352443 -77.4375 34.5 C-74.37754931 28.38009861 -69.66623674 25.0496752 -63.4375 22.5 C-60.46875 22.1484375 -60.46875 22.1484375 -57.4375 22.0625 C-51.43156991 21.88471829 -48.26154533 19.86740122 -43.69140625 16.09375 C-41.22743828 14.35146416 -39.40407278 13.87670765 -36.4375 13.5 C-36.1075 11.19 -35.7775 8.88 -35.4375 6.5 C-31.9725 6.005 -31.9725 6.005 -28.4375 5.5 C-28.4375 6.16 -28.4375 6.82 -28.4375 7.5 C-25.0175118 6.9137291 -21.6023585 6.30289062 -18.1875 5.6875 C-16.73537109 5.4390332 -16.73537109 5.4390332 -15.25390625 5.18554688 C-13.85205078 4.9293457 -13.85205078 4.9293457 -12.421875 4.66796875 C-11.56303711 4.51610107 -10.70419922 4.3642334 -9.81933594 4.20776367 C-5.94347737 3.05605047 -4.13416694 0.60133337 0 0 Z " fill="#ECECEB" transform="translate(289.4375,140.5)"/>
<path d="M0 0 C3.5625 0.5 3.5625 0.5 6.5 2.5625 C9.0868831 6.24684866 9.19401199 8.07941605 8.5625 12.5 C7.1875 15.125 7.1875 15.125 5.5625 17.5 C4.86427383 19.15369357 4.18751395 20.81727014 3.5625 22.5 C4.119375 22.7475 4.67625 22.995 5.25 23.25 C9.49734688 25.54586318 12.84665125 27.9004778 14.5625 32.5 C14.78955078 35.79980469 14.78955078 35.79980469 14.7578125 39.671875 C14.7549826 40.3542926 14.75215271 41.03671021 14.74923706 41.73980713 C14.73808098 43.91005307 14.71298557 46.07987971 14.6875 48.25 C14.67746426 49.72525444 14.66833944 51.20051537 14.66015625 52.67578125 C14.63815687 56.28398942 14.60365883 59.89195375 14.5625 63.5 C11.9225 63.5 9.2825 63.5 6.5625 63.5 C6.5625 62.18 6.5625 60.86 6.5625 59.5 C5.634375 60.139375 4.70625 60.77875 3.75 61.4375 C-1.29791761 64.70379963 -5.56772044 65.10100132 -11.4375 64.5 C-14.875 63 -14.875 63 -17.4375 61.5 C-19.53181517 61.26528324 -19.53181517 61.26528324 -20.84765625 62.8984375 C-21.39292969 63.55070312 -21.93820312 64.20296875 -22.5 64.875 C-23.13292969 65.61621094 -23.76585937 66.35742188 -24.41796875 67.12109375 C-25.08441406 67.90613281 -25.75085938 68.69117188 -26.4375 69.5 C-32.86671482 76.95357609 -39.74812659 83.88502198 -46.76123047 90.78686523 C-47.47939941 91.49657471 -48.19756836 92.20628418 -48.9375 92.9375 C-49.5871875 93.57558594 -50.236875 94.21367187 -50.90625 94.87109375 C-52.52612344 96.43826827 -52.52612344 96.43826827 -53.4375 98.5 C-52.385625 98.7475 -51.33375 98.995 -50.25 99.25 C-45.44737616 100.64712694 -42.57026704 102.93756271 -39.625 107 C-38.4375 110.5 -38.4375 110.5 -38.4375 122.5 C-53.7825 122.995 -53.7825 122.995 -69.4375 123.5 C-66.39093069 128.85446316 -66.39093069 128.85446316 -61.4375 131.5 C-55.84990505 132.24162624 -52.12026228 131.80547926 -47.4375 128.5 C-46.4475 128.5 -45.4575 128.5 -44.4375 128.5 C-42.75 131 -42.75 131 -41.4375 133.5 C-47.66849703 139.28592581 -52.67310437 139.76528045 -61.04296875 139.65234375 C-66.57766148 139.30021811 -70.58618641 137.45006522 -74.4375 133.5 C-77.4747357 128.56866402 -79.80693767 124.40044733 -79.4375 118.5 C-82.0606939 119.34419983 -82.0606939 119.34419983 -84.4375 121.5 C-85.23384381 124.54330814 -85.22818949 127.55405627 -85.25 130.6875 C-85.27513672 131.53248047 -85.30027344 132.37746094 -85.32617188 133.24804688 C-85.38502734 135.3315305 -85.41412995 137.41581627 -85.4375 139.5 C-89.14736572 139.78783441 -92.73748705 139.95251957 -96.4375 139.5 C-99.125 137 -99.125 137 -100.4375 134.5 C-104.50122948 135.12748764 -107.74590577 136.4595768 -111.4375 138.25 C-134.17416919 148.97240649 -134.17416919 148.97240649 -146.4375 147.5 C-150.10184369 145.36246618 -151.82584626 143.35694912 -153.4375 139.5 C-155.86466744 127.00605615 -148.7498521 116.32487093 -142.125 106.3125 C-141.67511719 105.67957031 -141.22523438 105.04664063 -140.76171875 104.39453125 C-137.59378505 99.86223672 -136.05836258 96.799699 -135.75 91.1875 C-135.68425781 90.11886719 -135.61851562 89.05023438 -135.55078125 87.94921875 C-135.51339844 87.14097656 -135.47601563 86.33273438 -135.4375 85.5 C-131.86952719 84.69553014 -128.98822657 84.54020977 -125.4375 85.5 C-122.25556785 88.59207692 -119.95881597 92.12542775 -117.55517578 95.84082031 C-115.8102004 98.43122064 -113.81586559 100.79430862 -111.8125 103.1875 C-111.07902344 104.07824219 -110.34554687 104.96898437 -109.58984375 105.88671875 C-108.52443359 107.18029297 -108.52443359 107.18029297 -107.4375 108.5 C-106.07437475 110.15934767 -104.71946889 111.82550051 -103.375 113.5 C-102.80652344 114.20125 -102.23804688 114.9025 -101.65234375 115.625 C-100.4375 117.5 -100.4375 117.5 -100.4375 120.5 C-99.4475 120.83 -98.4575 121.16 -97.4375 121.5 C-97.1075 122.16 -96.7775 122.82 -96.4375 123.5 C-96.1075 110.96 -95.7775 98.42 -95.4375 85.5 C-92.1375 85.5 -88.8375 85.5 -85.4375 85.5 C-85.4375 96.06 -85.4375 106.62 -85.4375 117.5 C-80.03605972 113.141066 -80.03605972 113.141066 -76.5625 108 C-72.88618445 102.22156145 -68.41354786 99.62776551 -62.09765625 97.234375 C-57.92971495 95.46885442 -55.02546766 92.75341588 -51.8125 89.625 C-51.2659375 89.10808594 -50.719375 88.59117187 -50.15625 88.05859375 C-46.86045384 84.92837587 -43.64381052 81.72172548 -40.4375 78.5 C-39.56351562 77.63761719 -38.68953125 76.77523437 -37.7890625 75.88671875 C-27.40334599 67.01177835 -27.40334599 67.01177835 -21.4375 55.5 C-21.46662737 54.01980006 -21.53025871 52.53995198 -21.625 51.0625 C-21.63548187 47.87077043 -21.46699311 46.55898622 -20 43.625 C-16.23366453 40.50169741 -11.40258772 38.5 -6.4375 38.5 C-6.14875 37.7575 -5.86 37.015 -5.5625 36.25 C-4.61381737 33.93099801 -3.57190221 31.73067324 -2.4375 29.5 C-3.79294922 29.87705078 -3.79294922 29.87705078 -5.17578125 30.26171875 C-6.35527344 30.56722656 -7.53476562 30.87273437 -8.75 31.1875 C-9.92175781 31.50074219 -11.09351563 31.81398437 -12.30078125 32.13671875 C-15.4375 32.5 -15.4375 32.5 -17.35546875 31.08203125 C-17.71253906 30.55996094 -18.06960938 30.03789062 -18.4375 29.5 C-17.32351599 26.15804797 -17.01232952 25.88373572 -14.0625 24.3125 C-8.95184075 21.86867567 -3.98612995 22.13281125 1.5625 22.5 C1.5625 21.18 1.5625 19.86 1.5625 18.5 C0.675625 18.603125 -0.21125 18.70625 -1.125 18.8125 C-4.4375 18.5 -4.4375 18.5 -7.3125 16.4375 C-9.92657931 12.82391977 -9.61190202 10.85492112 -9.4375 6.5 C-10.49710938 6.8609375 -11.55671875 7.221875 -12.6484375 7.59375 C-14.03640499 8.06265793 -15.42442875 8.53139931 -16.8125 9 C-17.51117188 9.23847656 -18.20984375 9.47695312 -18.9296875 9.72265625 C-24.2109375 11.5 -24.2109375 11.5 -26.4375 11.5 C-27.0975 12.82 -27.7575 14.14 -28.4375 15.5 C-35.3125 14.625 -35.3125 14.625 -36.4375 13.5 C-36.15019945 11.16055264 -35.81813221 8.8260857 -35.4375 6.5 C-31.9725 6.005 -31.9725 6.005 -28.4375 5.5 C-28.4375 6.16 -28.4375 6.82 -28.4375 7.5 C-25.0175118 6.9137291 -21.6023585 6.30289062 -18.1875 5.6875 C-16.73537109 5.4390332 -16.73537109 5.4390332 -15.25390625 5.18554688 C-13.85205078 4.9293457 -13.85205078 4.9293457 -12.421875 4.66796875 C-11.56303711 4.51610107 -10.70419922 4.3642334 -9.81933594 4.20776367 C-5.94347737 3.05605047 -4.13416694 0.60133337 0 0 Z " fill="#E4A033" transform="translate(289.4375,140.5)"/>
<path d="M0 0 C4.81301608 2.90614495 9.67842582 6.62121497 11.48828125 12.05078125 C11.52782359 14.3837795 11.53229857 16.71786314 11.48828125 19.05078125 C15.19293701 16.58101074 15.13693672 15.18430568 16.48828125 11.05078125 C19.5550264 4.91729096 24.20025718 1.5171682 30.48828125 -0.94921875 C37.91458623 -2.20324151 43.93943497 -1.63121012 50.1953125 2.6640625 C51.48828125 4.05078125 51.48828125 4.05078125 51.48828125 7.05078125 C49.98828125 8.73828125 49.98828125 8.73828125 48.48828125 10.05078125 C47.86953125 9.72078125 47.25078125 9.39078125 46.61328125 9.05078125 C41.31542488 7.35546721 36.3176921 6.93450805 31.0625 9.0078125 C27.65009647 11.1110168 25.82204873 12.73327804 24.8203125 16.6875 C24.58454922 21.35816165 24.87327021 24.95847023 27.86328125 28.67578125 C31.4976096 31.96398309 33.4783518 32.32081704 38.390625 32.28515625 C41.47055825 31.94102963 43.8104978 30.54535806 46.48828125 29.05078125 C49.48828125 29.05078125 49.48828125 29.05078125 51.17578125 30.55078125 C51.60890625 31.04578125 52.04203125 31.54078125 52.48828125 32.05078125 C50.98520523 36.72701777 47.62292815 37.90962482 43.48828125 40.05078125 C39.55837399 42.01573488 34.78174804 41.38525812 30.48828125 41.05078125 C23.51621839 38.59764802 19.10681161 33.34970447 15.48828125 27.05078125 C15.48828125 25.73078125 15.48828125 24.41078125 15.48828125 23.05078125 C14.16828125 23.38078125 12.84828125 23.71078125 11.48828125 24.05078125 C11.44703125 24.89640625 11.40578125 25.74203125 11.36328125 26.61328125 C9.8937279 32.38652654 6.40892623 35.89839426 1.36328125 38.92578125 C-5.50508214 41.61340171 -12.18202046 42.22102386 -19.19921875 39.61328125 C-24.34286101 37.10902109 -26.94312181 33.03202459 -29.51171875 28.05078125 C-31.37954443 22.44730422 -31.09600961 16.89591029 -29.32421875 11.30078125 C-23.0961576 0.13322332 -12.50989497 -4.7276897 0 0 Z " fill="#232222" transform="translate(195.51171875,163.94921875)"/>
<path d="M0 0 C4.69143495 2.15367043 7.9571792 4.09777274 9.984375 9.0390625 C10.32726562 9.63074219 10.67015625 10.22242188 11.0234375 10.83203125 C13.20208371 15.8358325 12.770728 22.20442474 11.33203125 27.390625 C9.07870902 32.40015683 5.6258936 36.11775584 0.984375 39.0390625 C-1.890625 39.9140625 -1.890625 39.9140625 -5.015625 40.0390625 C-6.06943359 40.09513672 -6.06943359 40.09513672 -7.14453125 40.15234375 C-13.24128543 40.34834769 -18.33702892 39.5963858 -23.703125 36.4765625 C-28.53695501 31.38144438 -30.26008135 25.94673581 -30.515625 18.9765625 C-30.23800237 12.35568338 -28.88909095 7.98199686 -24.23828125 3.21875 C-17.14103589 -2.46433288 -8.4876922 -2.70462731 0 0 Z " fill="#212121" transform="translate(378.015625,239.9609375)"/>
<path d="M0 0 C2.97 0 5.94 0 9 0 C10.31795397 3.72726161 11.62839873 7.45712083 12.9375 11.1875 C13.31068359 12.24259766 13.68386719 13.29769531 14.06835938 14.38476562 C14.42607422 15.40634766 14.78378906 16.42792969 15.15234375 17.48046875 C15.6472229 18.88655396 15.6472229 18.88655396 16.15209961 20.32104492 C16.95898039 22.87039789 17.53068176 25.36973202 18 28 C21.18827406 20.7144546 23.97223869 13.38545147 26.38745117 5.81420898 C27.9039291 1.0960709 27.9039291 1.0960709 29 0 C30.51928038 -0.07179964 32.04167482 -0.08392007 33.5625 -0.0625 C34.38878906 -0.05347656 35.21507812 -0.04445312 36.06640625 -0.03515625 C36.70449219 -0.02355469 37.34257812 -0.01195312 38 0 C39.50752893 4.26821354 41.00472959 8.53997809 42.5 12.8125 C42.92925781 14.02744141 43.35851562 15.24238281 43.80078125 16.49414062 C44.20683594 17.65751953 44.61289062 18.82089844 45.03125 20.01953125 C45.59682617 21.62985229 45.59682617 21.62985229 46.17382812 23.27270508 C47 26 47 26 47 29 C47.66 29 48.32 29 49 29 C49.13921875 27.86498047 49.13921875 27.86498047 49.28125 26.70703125 C50.27854501 21.56337385 51.89224509 16.66895749 53.5 11.6875 C53.82097656 10.67365234 54.14195312 9.65980469 54.47265625 8.61523438 C56.86872691 1.13127309 56.86872691 1.13127309 58 0 C59.51928038 -0.07179964 61.04167482 -0.08392007 62.5625 -0.0625 C63.38878906 -0.05347656 64.21507812 -0.04445312 65.06640625 -0.03515625 C65.70449219 -0.02355469 66.34257812 -0.01195312 67 0 C64.06649977 10.04501594 60.9158803 19.97474694 56.94921875 29.6640625 C55.55990288 33.08303736 54.28169322 36.53942831 53 40 C49.37 40 45.74 40 42 40 C39.36 32.08 36.72 24.16 34 16 C31.79669882 18.20330118 31.29814361 19.58355343 30.30859375 22.5 C29.85129883 23.8303125 29.85129883 23.8303125 29.38476562 25.1875 C29.07216797 26.115625 28.75957031 27.04375 28.4375 28 C27.81226059 29.83369602 27.18600726 31.66704673 26.55859375 33.5 C26.28329834 34.3146875 26.00800293 35.129375 25.72436523 35.96875 C25 38 25 38 24 40 C20.37 40 16.74 40 13 40 C11.59777177 36.03472458 10.19756654 32.06875851 8.80078125 28.1015625 C7.55742465 24.57216757 6.30296197 21.04692524 5.04296875 17.5234375 C4.40355574 15.72399035 3.76423104 13.92451181 3.125 12.125 C2.8148999 11.26358398 2.5047998 10.40216797 2.18530273 9.51464844 C1.89985596 8.70801758 1.61440918 7.90138672 1.3203125 7.0703125 C0.93770264 5.99934326 0.93770264 5.99934326 0.54736328 4.90673828 C0 3 0 3 0 0 Z " fill="#202020" transform="translate(280,239)"/>
<path d="M0 0 C-0.75567052 3.78630702 -2.12597273 5.4041044 -5 8 C-5.54527344 7.71125 -6.09054688 7.4225 -6.65234375 7.125 C-11.97090659 4.5066306 -17.03205203 2.66979473 -23 4 C-24.82431877 5.18368912 -24.82431877 5.18368912 -26 7 C-26.3606631 9.05363606 -26.3606631 9.05363606 -26.1875 11.1875 C-26.125625 12.445625 -26.06375 13.70375 -26 15 C-24.76636719 15.23783203 -24.76636719 15.23783203 -23.5078125 15.48046875 C-14.76420484 17.30794333 -4.73968943 19.51344857 1 27 C2.53377179 31.60131537 2.90474832 36.34779492 1.31640625 41.00390625 C-1.45646372 46.33103818 -5.40160413 49.13386804 -11 51 C-22.40714571 51.96376162 -29.86537022 49.55819574 -39 43 C-37.79618552 40.50638429 -36.54571278 38.31856917 -35 36 C-31.60147178 36.41194282 -29.82710633 37.11643859 -26.9375 39.0625 C-22.12017784 41.97628868 -16.44310927 41.88331159 -11 41 C-9.08265803 39.81783223 -9.08265803 39.81783223 -8 38 C-7.7496423 34.37464024 -7.7496423 34.37464024 -8 31 C-8.65484375 30.84144531 -9.3096875 30.68289062 -9.984375 30.51953125 C-30.7910524 25.20031005 -30.7910524 25.20031005 -36.07421875 18.09375 C-37.93129414 13.89378202 -37.84743135 9.45394154 -37 5 C-34.53186337 -0.40450496 -31.19328573 -1.85791176 -25.88671875 -4.04296875 C-16.55444449 -7.13688918 -8.74932758 -3.48479619 0 0 Z " fill="#212121" transform="translate(159,154)"/>
<path d="M0 0 C4.50329057 2.25164529 4.50329057 2.25164529 6.54296875 5.15234375 C6.97673828 5.76400391 7.41050781 6.37566406 7.85742188 7.00585938 C8.51581055 7.96202148 8.51581055 7.96202148 9.1875 8.9375 C9.63802734 9.57107422 10.08855469 10.20464844 10.55273438 10.85742188 C12.43634265 13.54304626 13.95737099 15.87211298 15 19 C15.99 19.33 16.98 19.66 18 20 C19.38671875 21.55859375 19.38671875 21.55859375 20.6875 23.4375 C21.12449219 24.05496094 21.56148437 24.67242187 22.01171875 25.30859375 C23 27 23 27 23 29 C11.0238452 36.47797938 -4.43428576 45.27769423 -19 44 C-22.38939556 41.86320715 -23.72582557 40.8225233 -25 37 C-25.85156749 30.04785887 -24.28814705 25.06672746 -21 19 C-20.45601562 17.99066406 -19.91203125 16.98132813 -19.3515625 15.94140625 C-16.23707942 10.38565805 -13.59898472 6.59898472 -9 2 C-9 13.55 -9 25.1 -9 37 C-6.03 37 -3.06 37 0 37 C0 24.79 0 12.58 0 0 Z " fill="#E9E8E6" transform="translate(163,242)"/>
<path d="M0 0 C2.64 0 5.28 0 8 0 C8.33 10.56 8.66 21.12 9 32 C14.40525016 26.69389751 14.40525016 26.69389751 19.375 21 C19.91125 20.34 20.4475 19.68 21 19 C21.66 19 22.32 19 23 19 C23.33 18.01 23.66 17.02 24 16 C27.96 16 31.92 16 36 16 C35.34 16.66 34.68 17.32 34 18 C33.32710938 18.680625 33.32710938 18.680625 32.640625 19.375 C31.42101015 20.58299947 30.17743375 21.76690387 28.921875 22.9375 C28.20515625 23.618125 27.4884375 24.29875 26.75 25 C25.72132813 25.9590625 25.72132813 25.9590625 24.671875 26.9375 C22.67784382 29.39742631 22.28935411 30.86294597 22 34 C22.90412025 36.1238844 22.90412025 36.1238844 24.45703125 38.03125 C24.99263672 38.75957031 25.52824219 39.48789062 26.08007812 40.23828125 C26.65177734 40.98464844 27.22347656 41.73101562 27.8125 42.5 C34.62080308 51.57251435 34.62080308 51.57251435 36 56 C32.08072076 56.84293322 28.88153667 57.11338815 25 56 C22.31976785 52.89336728 20.51193146 49.76957987 18.65625 46.13671875 C17.27161374 43.51440055 16.22836278 41.88187954 14 40 C10.75779627 42.41086944 9.25085708 43.74218142 8.4453125 47.78125 C8.21191921 50.52538928 8.05303957 53.24676404 8 56 C5.36 56 2.72 56 0 56 C0 37.52 0 19.04 0 0 Z " fill="#1E1E1E" transform="translate(423,223)"/>
<path d="M0 0 C10 0 10 0 12.62890625 2.23828125 C13.58603516 3.76001953 13.58603516 3.76001953 14.5625 5.3125 C15.29339844 6.40820312 16.02429688 7.50390625 16.77734375 8.6328125 C17.1419873 9.19645508 17.50663086 9.76009766 17.88232422 10.34082031 C19.6272996 12.93122064 21.62163441 15.29430862 23.625 17.6875 C24.35847656 18.57824219 25.09195313 19.46898437 25.84765625 20.38671875 C26.55792969 21.24910156 27.26820313 22.11148438 28 23 C29.36312525 24.65934767 30.71803111 26.32550051 32.0625 28 C32.63097656 28.70125 33.19945312 29.4025 33.78515625 30.125 C35 32 35 32 35 35 C35.99 35.33 36.98 35.66 38 36 C38.6875 38.0625 38.6875 38.0625 39 40 C37.35 41.32 35.7 42.64 34 44 C29.75111311 42.4825404 28.38502763 39.6859518 26 36 C25.22785156 35.2471875 24.45570313 34.494375 23.66015625 33.71875 C20.78541406 30.78068749 18.6215832 27.73272924 16.375 24.3125 C13.29361787 19.61392141 13.29361787 19.61392141 9 16 C9 28.21 9 40.42 9 53 C6.03 53 3.06 53 0 53 C0 35.51 0 18.02 0 0 Z " fill="#1B1B1B" transform="translate(154,226)"/>
<path d="M0 0 C3.3 0 6.6 0 10 0 C11.40027356 36.46426652 11.40027356 36.46426652 10 54 C6.29013428 54.28783441 2.70001295 54.45251957 -1 54 C-3.6875 51.5 -3.6875 51.5 -5 49 C-9.06372948 49.62748764 -12.30840577 50.9595768 -16 52.75 C-38.73666919 63.47240649 -38.73666919 63.47240649 -51 62 C-54.66434369 59.86246618 -56.38834626 57.85694912 -58 54 C-60.42825661 41.50044959 -53.29207336 30.87722824 -46.75 20.8125 C-44.62096634 17.77600938 -42.38399356 14.84245386 -40 12 C-39.57155844 17.06742951 -40.435179 19.2183653 -43.625 23.125 C-50.44135837 31.96326219 -56.16382016 41.56245705 -55 53 C-53.2880813 56.76398568 -53.2880813 56.76398568 -50 59 C-39.01502417 59.65176618 -28.32206115 54.91816209 -18.625 50.125 C-18.00826416 49.82207031 -17.39152832 49.51914062 -16.75610352 49.20703125 C-15.50627181 48.56298279 -14.27495042 47.88194851 -13.06298828 47.16918945 C-11 46 -11 46 -8.33935547 44.88354492 C-5.07553736 43.22493559 -3.2347216 41.92633171 -1 39 C0.80560125 32.58535872 0.26097499 25.65670108 0.125 19.0625 C0.12305664 17.21549398 0.12561494 15.3684774 0.1328125 13.52148438 C0.14061359 9.01253236 0.0869318 4.5080803 0 0 Z " fill="#89724D" transform="translate(194,226)"/>
<path d="M0 0 C4.83246116 1.4453049 8.06245219 4.22624725 11.06640625 8.19921875 C12.12890625 11.63671875 12.12890625 11.63671875 12.12890625 23.63671875 C-3.21609375 24.13171875 -3.21609375 24.13171875 -18.87109375 24.63671875 C-15.82452444 29.99118191 -15.82452444 29.99118191 -10.87109375 32.63671875 C-5.2834988 33.37834499 -1.55385603 32.94219801 3.12890625 29.63671875 C4.11890625 29.63671875 5.10890625 29.63671875 6.12890625 29.63671875 C7.81640625 32.13671875 7.81640625 32.13671875 9.12890625 34.63671875 C2.89790922 40.42264456 -2.10669812 40.9019992 -10.4765625 40.7890625 C-16.05119535 40.43439581 -19.90075189 38.50257793 -23.87109375 34.63671875 C-27.38850885 29.8834551 -28.7247781 25.96988122 -28.54296875 20.015625 C-27.45593775 16.16677688 -24.89886184 14.65764244 -21.62109375 12.59765625 C-21.04359375 12.28054687 -20.46609375 11.9634375 -19.87109375 11.63671875 C-18.87109375 15.51171875 -18.87109375 15.51171875 -18.87109375 16.63671875 C-11.28109375 16.96671875 -3.69109375 17.29671875 4.12890625 17.63671875 C1.29436955 8.68969435 1.29436955 8.68969435 -3.87109375 6.63671875 C-6.46264294 6.39641916 -6.46264294 6.39641916 -9.12109375 6.51171875 C-10.45914063 6.53878906 -10.45914063 6.53878906 -11.82421875 6.56640625 C-12.4996875 6.58960938 -13.17515625 6.6128125 -13.87109375 6.63671875 C-13.10796875 6.03859375 -12.34484375 5.44046875 -11.55859375 4.82421875 C-8.92056494 2.86904656 -8.92056494 2.86904656 -7.55859375 0.82421875 C-5.07633073 -0.92255893 -2.8877049 -0.49457929 0 0 Z " fill="#292928" transform="translate(238.87109375,239.36328125)"/>
<path d="M0 0 C2.05876174 1.19517496 3.77057622 2.22704597 5.39453125 3.96875 C5.39453125 6.96875 5.39453125 6.96875 3.89453125 8.65625 C3.39953125 9.089375 2.90453125 9.5225 2.39453125 9.96875 C1.46640625 9.47375 1.46640625 9.47375 0.51953125 8.96875 C-4.77832512 7.27343596 -9.7760579 6.8524768 -15.03125 8.92578125 C-18.44365353 11.02898555 -20.27170127 12.65124679 -21.2734375 16.60546875 C-21.50920078 21.2761304 -21.22047979 24.87643898 -18.23046875 28.59375 C-14.5961404 31.88195184 -12.6153982 32.23878579 -7.703125 32.203125 C-4.62319175 31.85899838 -2.2832522 30.46332681 0.39453125 28.96875 C3.39453125 28.96875 3.39453125 28.96875 5.08203125 30.46875 C5.51515625 30.96375 5.94828125 31.45875 6.39453125 31.96875 C4.89145523 36.64498652 1.52917815 37.82759357 -2.60546875 39.96875 C-6.53537601 41.93370363 -11.31200196 41.30322687 -15.60546875 40.96875 C-22.57753161 38.51561677 -26.98693839 33.26767322 -30.60546875 26.96875 C-30.60546875 25.64875 -30.60546875 24.32875 -30.60546875 22.96875 C-31.92546875 23.29875 -33.24546875 23.62875 -34.60546875 23.96875 C-34.79296875 21.59375 -34.79296875 21.59375 -34.60546875 18.96875 C-33.61546875 18.30875 -32.62546875 17.64875 -31.60546875 16.96875 C-30.92521238 14.97333132 -30.26056378 12.97257009 -29.60546875 10.96875 C-24.10579592 -0.03059565 -11.40178505 -4.51285045 0 0 Z " fill="#161A18" transform="translate(241.60546875,164.03125)"/>
<path d="M0 0 C2.64 0 5.28 0 8 0 C8 4.29 8 8.58 8 13 C11.63 13 15.26 13 19 13 C19 14.98 19 16.96 19 19 C15.37 19 11.74 19 8 19 C8.11343964 23.12562069 8.24019838 27.25007045 8.375 31.375 C8.4059375 32.550625 8.436875 33.72625 8.46875 34.9375 C8.50742187 36.05898438 8.54609375 37.18046875 8.5859375 38.3359375 C8.6173584 39.37282715 8.6487793 40.4097168 8.68115234 41.47802734 C8.75954472 44.16809835 8.75954472 44.16809835 11 46 C13.22128555 46.02308597 13.22128555 46.02308597 15.625 45.625 C16.44226563 45.51414062 17.25953125 45.40328125 18.1015625 45.2890625 C18.72804688 45.19367188 19.35453125 45.09828125 20 45 C20.66 46.98 21.32 48.96 22 51 C18.95611148 54.04388852 15.75403461 54.1744772 11.5625 54.3125 C8.22268107 54.26855501 7.05961533 54.0342471 4.0625 52.3125 C0.32836879 48.12574683 -0.24955542 44.32987473 -0.1953125 38.82421875 C-0.18886719 37.66728516 -0.18242187 36.51035156 -0.17578125 35.31835938 C-0.15902344 34.12017578 -0.14226562 32.92199219 -0.125 31.6875 C-0.11597656 30.46998047 -0.10695313 29.25246094 -0.09765625 27.99804688 C-0.07413037 24.99849726 -0.04125653 21.99934956 0 19 C-1.65 19 -3.3 19 -5 19 C-5 17.02 -5 15.04 -5 13 C-3.35 13 -1.7 13 0 13 C0 8.71 0 4.42 0 0 Z " fill="#1B1B1B" transform="translate(259,226)"/>
<path d="M0 0 C4.40938215 0.50392939 6.78843816 1.9620361 10 5 C12.42391806 8.61444961 12.23031168 11.90197458 12.1953125 16.171875 C12.1924826 16.8542926 12.18965271 17.53671021 12.18673706 18.23980713 C12.17558098 20.41005307 12.15048557 22.57987971 12.125 24.75 C12.11496426 26.22525444 12.10583944 27.70051537 12.09765625 29.17578125 C12.07565687 32.78398942 12.04115883 36.39195375 12 40 C9.36 40 6.72 40 4 40 C4 38.68 4 37.36 4 36 C2.6078125 36.9590625 2.6078125 36.9590625 1.1875 37.9375 C-3.86163895 41.20458991 -8.12956292 41.59902419 -14 41 C-17.5625 39.5 -17.5625 39.5 -20 38 C-19.50168276 34.31245243 -18.89932357 32.39509338 -16 30 C-15.01 30.33 -14.02 30.66 -13 31 C-13 31.66 -13 32.32 -13 33 C-5.49786073 32.92323999 -5.49786073 32.92323999 1.125 29.8125 C3.46973457 26.71217477 3.46973457 26.71217477 4 21 C-0.29 21 -4.58 21 -9 21 C-8.34 19.35 -7.68 17.7 -7 16 C-3.37 16 0.26 16 4 16 C2.90213575 10.59212615 2.90213575 10.59212615 -1 7 C-0.67 4.69 -0.34 2.38 0 0 Z " fill="#1F1E1D" transform="translate(292,164)"/>
<path d="M0 0 C4.38773175 2.19386588 7.09334197 4.44520582 9 9 C9.76905677 14.82285844 8.41465787 19.30616689 5 24 C0.73594205 27.03221899 -2.83295162 27.72519977 -8 27 C-11.60712314 25.2256459 -14.26843091 23.14506466 -16.4375 19.75 C-18.37631606 10.27134369 -18.37631606 10.27134369 -15.7265625 5.8984375 C-10.98004679 0.27207985 -7.32266314 -0.88759553 0 0 Z " fill="#EBEBEB" transform="translate(373,246)"/>
<path d="M0 0 C3.7474026 2.09854546 5.36392569 4.1099349 7 8 C7.63661795 12.06095242 7.95279272 16.20435218 5.984375 19.9140625 C3.53590545 22.90827526 0.85688489 25.73224694 -3.0859375 26.30078125 C-7.87362456 26.32529159 -11.21178355 26.24704267 -15 23 C-18.66251102 18.84255506 -19.6401263 15.57758866 -19.39453125 10.18359375 C-18.77792243 6.77087762 -17.22190343 4.60280116 -15 2 C-10.33459182 -1.11027212 -5.46304595 -0.60536455 0 0 Z " fill="#EAEAEA" transform="translate(192,171)"/>
<path d="M0 0 C2.97 0 5.94 0 9 0 C9.33 1.65 9.66 3.3 10 5 C10.44730469 4.6390625 10.89460938 4.278125 11.35546875 3.90625 C16.35506003 0.06861063 16.35506003 0.06861063 19.9375 -0.3125 C20.618125 -0.209375 21.29875 -0.10625 22 0 C22 2.64 22 5.28 22 8 C20.046875 8.32552083 18.09375 8.65104167 16.140625 8.9765625 C12.83879891 10.55517278 11.27579644 12.66700151 10 16 C9.38719795 20.12282053 9.30394131 24.21171168 9.25 28.375 C9.22035156 29.49261719 9.19070313 30.61023438 9.16015625 31.76171875 C9.08974176 34.5078839 9.03690377 37.25321404 9 40 C6.03 40 3.06 40 0 40 C0 26.8 0 13.6 0 0 Z " fill="#1E1E1E" transform="translate(396,239)"/>
<path d="M0 0 C2.64 0 5.28 0 8 0 C8 19.14 8 38.28 8 58 C5.36 58 2.72 58 0 58 C0 38.86 0 19.72 0 0 Z " fill="#202020" transform="translate(312,147)"/>
<path d="M0 0 C3.5625 0.5 3.5625 0.5 6.5 2.5625 C9.0868831 6.24684866 9.19401199 8.07941605 8.5625 12.5 C7.1875 15.125 7.1875 15.125 5.5625 17.5 C4.86427383 19.15369357 4.18751395 20.81727014 3.5625 22.5 C2.9025 22.5 2.2425 22.5 1.5625 22.5 C1.5625 21.18 1.5625 19.86 1.5625 18.5 C0.675625 18.603125 -0.21125 18.70625 -1.125 18.8125 C-4.4375 18.5 -4.4375 18.5 -7.3125 16.4375 C-9.92657931 12.82391977 -9.61190202 10.85492112 -9.4375 6.5 C-10.49710937 6.8609375 -11.55671875 7.221875 -12.6484375 7.59375 C-14.03640499 8.06265793 -15.42442875 8.53139931 -16.8125 9 C-17.51117188 9.23847656 -18.20984375 9.47695312 -18.9296875 9.72265625 C-24.2109375 11.5 -24.2109375 11.5 -26.4375 11.5 C-27.0975 12.82 -27.7575 14.14 -28.4375 15.5 C-35.3125 14.625 -35.3125 14.625 -36.4375 13.5 C-36.15019945 11.16055264 -35.81813221 8.8260857 -35.4375 6.5 C-31.9725 6.005 -31.9725 6.005 -28.4375 5.5 C-28.4375 6.16 -28.4375 6.82 -28.4375 7.5 C-25.0175118 6.9137291 -21.6023585 6.30289062 -18.1875 5.6875 C-16.73537109 5.4390332 -16.73537109 5.4390332 -15.25390625 5.18554688 C-13.85205078 4.9293457 -13.85205078 4.9293457 -12.421875 4.66796875 C-11.56303711 4.51610107 -10.70419922 4.3642334 -9.81933594 4.20776367 C-5.94347737 3.05605047 -4.13416694 0.60133337 0 0 Z " fill="#EF990E" transform="translate(289.4375,140.5)"/>
<path d="M0 0 C2.64 0 5.28 0 8 0 C8 13.53 8 27.06 8 41 C5.36 41 2.72 41 0 41 C0 27.47 0 13.94 0 0 Z " fill="#1E1E1E" transform="translate(254,163)"/>
<path d="M0 0 C3.58422738 1.08314564 6.49539964 2.99999025 9.1328125 5.64453125 C11.1328125 9.64453125 11.1328125 9.64453125 11.1328125 22.64453125 C0.9028125 22.64453125 -9.3271875 22.64453125 -19.8671875 22.64453125 C-18.5471875 21.98453125 -17.2271875 21.32453125 -15.8671875 20.64453125 C-15.2071875 19.65453125 -14.5471875 18.66453125 -13.8671875 17.64453125 C-11.98779297 17.30395508 -11.98779297 17.30395508 -9.734375 17.3515625 C-8.92871094 17.36123047 -8.12304688 17.37089844 -7.29296875 17.38085938 C-6.45121094 17.40599609 -5.60945312 17.43113281 -4.7421875 17.45703125 C-3.46794922 17.47733398 -3.46794922 17.47733398 -2.16796875 17.49804688 C-0.06743913 17.53344906 2.03276543 17.58725724 4.1328125 17.64453125 C3.56614704 16.17964076 2.97877022 14.72275122 2.3828125 13.26953125 C1.89554688 12.05136719 1.89554688 12.05136719 1.3984375 10.80859375 C-0.11764421 8.21628119 -1.03430362 7.57533596 -3.8671875 6.64453125 C-6.45873669 6.40423166 -6.45873669 6.40423166 -9.1171875 6.51953125 C-10.45523438 6.54660156 -10.45523438 6.54660156 -11.8203125 6.57421875 C-12.49578125 6.59742188 -13.17125 6.620625 -13.8671875 6.64453125 C-13.1040625 6.04640625 -12.3409375 5.44828125 -11.5546875 4.83203125 C-8.91665869 2.87685906 -8.91665869 2.87685906 -7.5546875 0.83203125 C-5.07484121 -0.91304577 -2.88665066 -0.48465906 0 0 Z " fill="#1A1A1A" transform="translate(238.8671875,239.35546875)"/>
<path d="M0 0 C2.64 0 5.28 0 8 0 C8 11.22 8 22.44 8 34 C4.04 35.98 4.04 35.98 0 38 C0 25.46 0 12.92 0 0 Z " fill="#1B1A17" transform="translate(195,226)"/>
<path d="M0 0 C0.33 0 0.66 0 1 0 C1.42844156 5.06742951 0.564821 7.2183653 -2.625 11.125 C-9.44135837 19.96326219 -15.16382016 29.56245705 -14 41 C-12.2880813 44.76398568 -12.2880813 44.76398568 -9 47 C2.97669501 47.71060737 14.45826954 42.18240111 24.77124023 36.59179688 C28.21591122 34.74755941 29.99438342 34 34 34 C34.66 34.66 35.32 35.32 36 36 C34.83082031 36.47050781 33.66164062 36.94101562 32.45703125 37.42578125 C30.90876613 38.05447072 29.36059392 38.68338906 27.8125 39.3125 C27.04357422 39.62123047 26.27464844 39.92996094 25.48242188 40.24804688 C21.42477374 41.90245277 17.74093727 43.70040458 14 46 C6.2545035 49.10350374 -1.62185027 51.00592916 -10 50 C-13.66434369 47.86246618 -15.38834626 45.85694912 -17 42 C-19.42716744 29.50605615 -12.3123521 18.82487093 -5.6875 8.8125 C-5.213125 8.13960937 -4.73875 7.46671875 -4.25 6.7734375 C-3.15075051 5.21387728 -2.15929942 3.57950591 -1.1875 1.9375 C-0.795625 1.298125 -0.40375 0.65875 0 0 Z " fill="#DFA33E" transform="translate(153,238)"/>
<path d="M0 0 C-0.99 0.33 -1.98 0.66 -3 1 C-3.33 3.31 -3.66 5.62 -4 8 C-3.360625 8.185625 -2.72125 8.37125 -2.0625 8.5625 C0 10 0 10 0.75 13.625 C0.87375 15.295625 0.87375 15.295625 1 17 C-2.96 17.33 -6.92 17.66 -11 18 C-12 14 -12 14 -11.22265625 12.078125 C-9.61132812 9.5390625 -9.61132812 9.5390625 -8 7 C-8.90363281 7.25136719 -9.80726563 7.50273437 -10.73828125 7.76171875 C-11.91777344 8.06722656 -13.09726562 8.37273437 -14.3125 8.6875 C-16.07013672 9.15736328 -16.07013672 9.15736328 -17.86328125 9.63671875 C-21 10 -21 10 -22.91796875 8.58203125 C-23.27503906 8.05996094 -23.63210938 7.53789062 -24 7 C-23 4 -23 4 -19.875 1.8125 C-13.71340036 -1.15545001 -6.6629001 -0.31232344 0 0 Z " fill="#BE9654" transform="translate(295,163)"/>
<path d="M0 0 C3.53866538 1.80271633 5.48858008 3.04689923 7.375 6.5625 C8 9 8 9 8 12 C0.41 12 -7.18 12 -15 12 C-15.33 11.34 -15.66 10.68 -16 10 C-13.18721396 2.38893188 -8.13900392 -1.16271485 0 0 Z " fill="#E1E1E0" transform="translate(235,245)"/>
<path d="M0 0 C1.65 1.32 3.3 2.64 5 4 C3.49692398 8.67623652 0.1346469 9.85884357 -4 12 C-7.91814658 13.95907329 -12.71920726 13.36124833 -17 13 C-20.6875 11.5 -20.6875 11.5 -23 10 C-23 9.34 -23 8.68 -23 8 C-22.01 8 -21.02 8 -20 8 C-19.67 6.68 -19.34 5.36 -19 4 C-18.01 4.33 -17.02 4.66 -16 5 C-13.14936184 4.79555659 -13.14936184 4.79555659 -10.0625 4.25 C-9.02222656 4.09015625 -7.98195312 3.9303125 -6.91015625 3.765625 C-3.93389161 2.98260773 -2.29230136 2.01059686 0 0 Z " fill="#1D1D1D" transform="translate(243,192)"/>
<path d="M0 0 C0.33 0 0.66 0 1 0 C1.01981934 0.71655762 1.03963867 1.43311523 1.06005859 2.17138672 C1.15509519 5.4063063 1.26486019 8.64056094 1.375 11.875 C1.4059375 13.00292969 1.436875 14.13085938 1.46875 15.29296875 C1.50742187 16.36933594 1.54609375 17.44570313 1.5859375 18.5546875 C1.6173584 19.54968262 1.6487793 20.54467773 1.68115234 21.56982422 C1.77247083 24.17854517 1.77247083 24.17854517 4 26 C6.22128555 26.02308597 6.22128555 26.02308597 8.625 25.625 C9.85089844 25.45871094 9.85089844 25.45871094 11.1015625 25.2890625 C11.72804688 25.19367188 12.35453125 25.09828125 13 25 C13.66 26.98 14.32 28.96 15 31 C11.95611148 34.04388852 8.75403461 34.1744772 4.5625 34.3125 C1.22268107 34.26855501 0.05961533 34.0342471 -2.9375 32.3125 C-6.72388155 28.06716311 -7.2607324 24.6057466 -7 19 C-6.34 20.32 -5.68 21.64 -5 23 C-3.68 23 -2.36 23 -1 23 C-0.67 15.41 -0.34 7.82 0 0 Z " fill="#272727" transform="translate(266,246)"/>
<path d="M0 0 C-1.43347499 3.38957108 -3.18781692 5.2780678 -6 7.625 C-8.07660336 9.3733168 -10.07962765 11.07962765 -12 13 C-13.65532623 14.01866229 -15.32260138 15.01810813 -17 16 C-17.99 16.66 -18.98 17.32 -20 18 C-20.73606499 21.56769552 -20.73606499 21.56769552 -21 25 C-21.33 25 -21.66 25 -22 25 C-22 23.35 -22 21.7 -22 20 C-23.98 20.99 -25.96 21.98 -28 23 C-28 21.68 -28 20.36 -28 19 C-26.58903022 17.82419185 -25.16916698 16.6571634 -23.703125 15.55078125 C-21.69971408 13.72657452 -20.52326895 11.81636312 -19.125 9.5 C-14.28395981 1.94848158 -8.86871553 -0.7918496 0 0 Z " fill="#D29222" transform="translate(232,239)"/>
<path d="M0 0 C4.62 0 9.24 0 14 0 C14 7 14 7 12.1875 9.4375 C7.50676177 11.73197952 3.12149648 11.32289645 -2 11 C-4.109375 6.2890625 -4.109375 6.2890625 -3.125 3.6875 C-2.75375 3.130625 -2.3825 2.57375 -2 2 C-1.34 2 -0.68 2 0 2 C0 1.34 0 0.68 0 0 Z " fill="#EBEBE9" transform="translate(281,186)"/>
<path d="M0 0 C0 4.95 0 9.9 0 15 C-8.30078125 15.390625 -8.30078125 15.390625 -11 15 C-12.91796875 13.234375 -12.91796875 13.234375 -14 11 C-14.02734375 8.984375 -14.02734375 8.984375 -13 7 C-10.56640625 5.078125 -10.56640625 5.078125 -7.5625 3.25 C-6.57378906 2.63640625 -5.58507812 2.0228125 -4.56640625 1.390625 C-2 0 -2 0 0 0 Z " fill="#1B1A1B" transform="translate(203,264)"/>
<path d="M0 0 C0.33 0 0.66 0 1 0 C1.01417969 0.58007812 1.02835938 1.16015625 1.04296875 1.7578125 C1.41745058 7.89121762 2.65909544 10.65909544 7 15 C7.66 15.66 8.32 16.32 9 17 C8.01 17 7.02 17 6 17 C5.34 17.99 4.68 18.98 4 20 C2.1875 21 2.1875 21 0 21 C-3.46240035 18.12874117 -6.02919501 15.04533656 -8 11 C-8 9.68 -8 8.36 -8 7 C-9.32 7.33 -10.64 7.66 -12 8 C-12 6.35 -12 4.7 -12 3 C-10.68 2.34 -9.36 1.68 -8 1 C-7.67 3.97 -7.34 6.94 -7 10 C-3.93449408 9.01041003 -3.93449408 9.01041003 -1 7 C-0.02126462 3.40614946 -0.02126462 3.40614946 0 0 Z " fill="#252525" transform="translate(219,180)"/>
<path d="M0 0 C4.40938215 0.50392939 6.78843816 1.9620361 10 5 C12.42391806 8.61444961 12.23031168 11.90197458 12.1953125 16.171875 C12.1924826 16.8542926 12.18965271 17.53671021 12.18673706 18.23980713 C12.17558098 20.41005307 12.15048557 22.57987971 12.125 24.75 C12.11496426 26.22525444 12.10583944 27.70051537 12.09765625 29.17578125 C12.07565687 32.78398942 12.04115883 36.39195375 12 40 C11.67 40 11.34 40 11 40 C10.67 30.43 10.34 20.86 10 11 C8.02 11.99 6.04 12.98 4 14 C3.54625 13.030625 3.0925 12.06125 2.625 11.0625 C1.34213779 7.92920418 1.34213779 7.92920418 -1 7 C-0.67 4.69 -0.34 2.38 0 0 Z " fill="#363736" transform="translate(292,164)"/>
<path d="M0 0 C1.6875 2.5 1.6875 2.5 3 5 C0.95267923 7.48160093 -0.13404321 8.63182967 -3 10 C-8.03634273 10.44732407 -12.95793279 10.28866797 -18 10 C-17.30859375 7.60546875 -17.30859375 7.60546875 -16 5 C-13.72265625 3.92578125 -13.72265625 3.92578125 -11.0625 3.3125 C-7.08371869 2.35735809 -3.97075408 0 0 0 Z " fill="#222222" transform="translate(245,269)"/>
<path d="M0 0 C3.59452983 3.49182898 6.96185351 7.00700747 10 11 C10 11.99 10 12.98 10 14 C10.99 14.33 11.98 14.66 13 15 C13.6875 17.0625 13.6875 17.0625 14 19 C12.35 20.32 10.7 21.64 9 23 C4.33845958 21.50164772 3.13389249 18.11536409 1 14 C2.65 14 4.3 14 6 14 C5.67 12.35 5.34 10.7 5 9 C3.68 9 2.36 9 1 9 C1.33 7.68 1.66 6.36 2 5 C1.01 5 0.02 5 -1 5 C-0.67 3.35 -0.34 1.7 0 0 Z " fill="#201D17" transform="translate(179,247)"/>
<path d="M0 0 C2.5892113 3.88381696 3.25900313 6.00506884 2.375 10.5 C1.56634022 13.90634087 1.29217178 14.75895828 -1.5 17.0625 C-4 18 -4 18 -6 18 C-6.95595136 13.22024321 -7.23869279 8.85342006 -7 4 C-5 1 -5 1 -2.375 0.3125 C-1.59125 0.209375 -0.8075 0.10625 0 0 Z " fill="#181919" transform="translate(218,172)"/>
<path d="M0 0 C-0.875 4.75 -0.875 4.75 -2 7 C-5.0546875 7.95703125 -5.0546875 7.95703125 -8.875 8.8125 C-10.13054687 9.10769531 -11.38609375 9.40289062 -12.6796875 9.70703125 C-16 10 -16 10 -17.9453125 8.57421875 C-18.29335938 8.05472656 -18.64140625 7.53523437 -19 7 C-17.87823088 3.63469263 -17.54511927 3.37882521 -14.5625 1.8125 C-9.73726698 -0.49065115 -5.24603801 -0.3870028 0 0 Z " fill="#231F18" transform="translate(290,163)"/>
<path d="M0 0 C-0.99 0.495 -0.99 0.495 -2 1 C-2 1.66 -2 2.32 -2 3 C-1.34 3.33 -0.68 3.66 0 4 C-0.33 4.33 -0.66 4.66 -1 5 C1.475 5.495 1.475 5.495 4 6 C4 6.33 4 6.66 4 7 C2.7625 7.268125 1.525 7.53625 0.25 7.8125 C-2.50208842 8.4811412 -3.94769485 8.96077114 -6.25 10.6875 C-7.11625 11.3371875 -7.11625 11.3371875 -8 12 C-9.34061543 11.69728039 -10.67405895 11.36162029 -12 11 C-14.70465742 11.86454438 -14.70465742 11.86454438 -17 13 C-15.92815607 7.37281937 -13.34308367 5.32851999 -8.875 2.19921875 C-5.6835976 0.15805097 -3.77670175 -0.09938689 0 0 Z " fill="#2C2C2C" transform="translate(366,239)"/>
<path d="M0 0 C-3.24872916 6.46751612 -7.02919664 11.742695 -12 17 C-12.66 16.67 -13.32 16.34 -14 16 C-14.62108626 8.08115016 -14.62108626 8.08115016 -12.3125 4.0625 C-8.32186935 0.50328888 -5.22415644 -0.09593609 0 0 Z " fill="#30291C" transform="translate(282,180)"/>
<path d="M0 0 C0.94875 0.04125 1.8975 0.0825 2.875 0.125 C0.24902465 2.75579365 -2.38177688 5.38109344 -5.02734375 7.9921875 C-10.28880988 13.19888235 -15.43187481 18.3889581 -20.125 24.125 C-20.785 22.805 -21.445 21.485 -22.125 20.125 C-20.23048397 18.06127679 -18.33443437 15.99899843 -16.4375 13.9375 C-15.90705078 13.35935547 -15.37660156 12.78121094 -14.83007812 12.18554688 C-11.66875116 8.75269489 -8.44900671 5.40243569 -5.125 2.125 C-3.125 0.125 -3.125 0.125 0 0 Z " fill="#E39E2D" transform="translate(186.125,204.875)"/>
<path d="M0 0 C3.66165273 1.12923232 6.18422892 3.25808444 9.140625 5.66015625 C8.2434375 6.03140625 8.2434375 6.03140625 7.328125 6.41015625 C4.85414979 7.82385637 3.70692245 9.31071008 2.140625 11.66015625 C1.521875 11.02078125 0.903125 10.38140625 0.265625 9.72265625 C-2.92363989 6.62719327 -4.64930791 6.54207847 -8.984375 6.59765625 C-9.89445313 6.60667969 -10.80453125 6.61570313 -11.7421875 6.625 C-12.79019531 6.64240234 -12.79019531 6.64240234 -13.859375 6.66015625 C-13.09625 6.06203125 -12.333125 5.46390625 -11.546875 4.84765625 C-8.90884619 2.89248406 -8.90884619 2.89248406 -7.546875 0.84765625 C-5.07179389 -0.89406749 -2.88452203 -0.46472855 0 0 Z " fill="#302410" transform="translate(238.859375,239.33984375)"/>
<path d="M0 0 C3.0625 2.5 3.0625 2.5 5 5 C3.68 6.32 2.36 7.64 1 9 C0.38125 8.690625 -0.2375 8.38125 -0.875 8.0625 C-5.18802294 6.5960722 -9.4759996 6.33380974 -14 6 C-13.1875 3.5625 -13.1875 3.5625 -12 1 C-7.95177233 -0.34940922 -4.22757949 -0.69595879 0 0 Z " fill="#181A1A" transform="translate(243,165)"/>
<path d="M0 0 C2.14915785 3.22373677 2.38286803 4.26703674 2 8 C1.34 8.66 0.68 9.32 0 10 C-6.57692308 9.42307692 -6.57692308 9.42307692 -8 8 C-7.6875 4.5 -7.6875 4.5 -7 1 C-4.46578263 -0.26710868 -2.80561762 -0.28056176 0 0 Z " fill="#2B2421" transform="translate(261,146)"/>
<path d="M0 0 C0.33 0.66 0.66 1.32 1 2 C1.66 2.33 2.32 2.66 3 3 C2.28972656 3.69867188 1.57945312 4.39734375 0.84765625 5.1171875 C-0.07144531 6.02726563 -0.99054688 6.93734375 -1.9375 7.875 C-2.85402344 8.77992188 -3.77054688 9.68484375 -4.71484375 10.6171875 C-7.01187627 12.77682255 -7.01187627 12.77682255 -8 15 C-11.24733335 16.2757381 -13.67032582 15.83241855 -17 15 C-16.30519531 14.45859375 -15.61039063 13.9171875 -14.89453125 13.359375 C-11.71275661 10.76586368 -8.69829688 8.03763939 -5.6875 5.25 C-5.13771484 4.74339844 -4.58792969 4.23679688 -4.02148438 3.71484375 C-2.67964588 2.4780187 -1.33963279 1.23921375 0 0 Z " fill="#E3A030" transform="translate(244,224)"/>
<path d="M0 0 C0.66 0.33 1.32 0.66 2 1 C1.34 2.65 0.68 4.3 0 6 C2.31 6 4.62 6 7 6 C2.68 10.68 2.68 10.68 -0.125 12 C-2 12 -2 12 -3.5625 10.625 C-4.2740625 9.820625 -4.2740625 9.820625 -5 9 C-5.99 8.67 -6.98 8.34 -8 8 C-6.49776416 3.79373966 -3.71449966 2.26099979 0 0 Z " fill="#26282C" transform="translate(222,165)"/>
<path d="M0 0 C0.226875 0.639375 0.45375 1.27875 0.6875 1.9375 C1.85250896 4.27193661 1.85250896 4.27193661 4.625 4.75 C5.40875 4.8325 6.1925 4.915 7 5 C7.33 6.65 7.66 8.3 8 10 C6.33388095 10.042721 4.66617115 10.04063832 3 10 C2.67 9.67 2.34 9.34 2 9 C0.33382885 8.95936168 -1.33388095 8.957279 -3 9 C-3.75 7.3125 -3.75 7.3125 -4 5 C-2.0625 2.25 -2.0625 2.25 0 0 Z " fill="#272013" transform="translate(276,194)"/>
<path d="M0 0 C0.99 0 1.98 0 3 0 C2.67 1.98 2.34 3.96 2 6 C6.29 6 10.58 6 15 6 C15 7.98 15 9.96 15 12 C14.67 12 14.34 12 14 12 C14 10.35 14 8.7 14 7 C9.38 7 4.76 7 0 7 C0 7.66 0 8.32 0 9 C-0.66 9 -1.32 9 -2 9 C-2.66 10.65 -3.32 12.3 -4 14 C-4.99 14 -5.98 14 -7 14 C-5.15105189 10.22434427 -3.0944193 6.58291963 -1.0234375 2.92578125 C0.07821436 1.21629877 0.07821436 1.21629877 0 0 Z " fill="#B08642" transform="translate(281,179)"/>
<path d="M0 0 C-1.72572488 1.44163007 -3.4557347 2.87813165 -5.1875 4.3125 C-6.63189453 5.51326172 -6.63189453 5.51326172 -8.10546875 6.73828125 C-10.65588917 8.73111988 -13.18642401 10.41061246 -16 12 C-15.41850235 8.07489083 -13.70742568 5.84992176 -11 3 C-7.305852 0.26804869 -4.56854715 -1.54288654 0 0 Z " fill="#382616" transform="translate(228,240)"/>
<path d="M0 0 C-3.49563046 2.33042031 -7.10089128 4.43517843 -10.72265625 6.5625 C-13.08124929 7.93424082 -13.08124929 7.93424082 -15 10 C-15.99 9.01 -16.98 8.02 -18 7 C-16.37615858 5.85252535 -14.75088944 4.7070709 -13.125 3.5625 C-12.22007812 2.92441406 -11.31515625 2.28632813 -10.3828125 1.62890625 C-6.36341493 -1.11878029 -4.76957551 -0.93317782 0 0 Z " fill="#DC9D36" transform="translate(256,155)"/>
<path d="M0 0 C2 3 2 3 1.625 5.6875 C1.41875 6.450625 1.2125 7.21375 1 8 C-0.98 8.66 -2.96 9.32 -5 10 C-5.33 7.03 -5.66 4.06 -6 1 C-4.7934375 1.0309375 -4.7934375 1.0309375 -3.5625 1.0625 C-1.06645115 1.29633621 -1.06645115 1.29633621 0 0 Z " fill="#1A1817" transform="translate(217,180)"/>
<path d="M0 0 C3.69230769 0.69230769 3.69230769 0.69230769 5 2 C5.04080783 3.99958364 5.04254356 6.00045254 5 8 C2.03 8 -0.94 8 -4 8 C-1.125 1.125 -1.125 1.125 0 0 Z " fill="#ECEAE8" transform="translate(290,171)"/>
<path d="M0 0 C3.59452983 3.49182898 6.96185351 7.00700747 10 11 C10 11.99 10 12.98 10 14 C8.68 14.33 7.36 14.66 6 15 C5.67 13.02 5.34 11.04 5 9 C3.68 9 2.36 9 1 9 C1.33 7.68 1.66 6.36 2 5 C1.01 5 0.02 5 -1 5 C-0.67 3.35 -0.34 1.7 0 0 Z " fill="#2C2B2B" transform="translate(179,247)"/>
<path d="M0 0 C0.99 0 1.98 0 3 0 C4.20608899 5.30679157 4.20608899 5.30679157 3.3125 8.3125 C1.68894113 10.39993284 0.57547398 10.65660347 -2 11 C-3.35439668 8.29120665 -3.06501451 5.99066732 -3 3 C-2.01 2.67 -1.02 2.34 0 2 C0 1.34 0 0.68 0 0 Z " fill="#1C1C1C" transform="translate(169,183)"/>
<path d="M0 0 C0.66 0.33 1.32 0.66 2 1 C1.67 3.31 1.34 5.62 1 8 C0.01 8.33 -0.98 8.66 -2 9 C-2 9.66 -2 10.32 -2 11 C-2.99 11.33 -3.98 11.66 -5 12 C-5.66 11.34 -6.32 10.68 -7 10 C-6.67 9.01 -6.34 8.02 -6 7 C-5.34 7 -4.68 7 -4 7 C-3.71125 6.401875 -3.4225 5.80375 -3.125 5.1875 C-2 3 -2 3 0 0 Z " fill="#191917" transform="translate(205,181)"/>
<path d="M0 0 C3.37462715 0.54723683 5.08235 1.0549 8 3 C7.67 4.65 7.34 6.3 7 8 C4.125 7.6875 4.125 7.6875 1 7 C-1 4 -1 4 -0.625 1.8125 C-0.41875 1.214375 -0.2125 0.61625 0 0 Z " fill="#1C1C1C" transform="translate(125,191)"/>
<path d="M0 0 C-0.66 1.32 -1.32 2.64 -2 4 C-0.35 4 1.3 4 3 4 C-2.07086614 6.71653543 -2.07086614 6.71653543 -5 7 C-6.75 5.5625 -6.75 5.5625 -8 4 C-7 1 -7 1 -5.125 -0.25 C-3 -1 -3 -1 0 0 Z " fill="#282929" transform="translate(279,166)"/>
<path d="M0 0 C0.33 0 0.66 0 1 0 C1 2.97 1 5.94 1 9 C0.67 8.01 0.34 7.02 0 6 C-1.43838552 6.79005662 -2.87567415 7.58211045 -4.3125 8.375 C-5.11300781 8.81585938 -5.91351563 9.25671875 -6.73828125 9.7109375 C-8.53527943 10.73513335 -10.27900708 11.85267138 -12 13 C-11.71125 12.443125 -11.4225 11.88625 -11.125 11.3125 C-9.9586747 8.91505355 -8.9660119 6.48403061 -8 4 C-7.34 4.33 -6.68 4.66 -6 5 C-3.39529669 4.32481546 -3.39529669 4.32481546 -1 3 C-0.67 2.01 -0.34 1.02 0 0 Z " fill="#2E2E2E" transform="translate(160,184)"/>
<path d="M0 0 C0.33 0 0.66 0 1 0 C0.67 4.29 0.34 8.58 0 13 C-0.33 13 -0.66 13 -1 13 C-1 11.35 -1 9.7 -1 8 C-2.98 8.99 -4.96 9.98 -7 11 C-7 9.68 -7 8.36 -7 7 C-5.05874656 5.26526288 -3.05727132 3.5954349 -1 2 C-0.67 1.34 -0.34 0.68 0 0 Z " fill="#D09C3D" transform="translate(211,251)"/>
<path d="M0 0 C-3.16952847 3.26008643 -6.39937989 6.22237877 -10 9 C-10 8.01 -10 7.02 -10 6 C-10.66 5.67 -11.32 5.34 -12 5 C-7.90746174 1.10234452 -5.90669543 -0.70317803 0 0 Z " fill="#DBA040" transform="translate(189,205)"/>
<path d="M0 0 C0 0.33 0 0.66 0 1 C-2.12392506 1.6700834 -4.24917524 2.33596797 -6.375 3 C-7.55835938 3.37125 -8.74171875 3.7425 -9.9609375 4.125 C-13 5 -13 5 -15 5 C-15.33 3.68 -15.66 2.36 -16 1 C-10.26696495 -0.57300962 -5.84340558 -1.24327778 0 0 Z " fill="#DBA550" transform="translate(278,147)"/>
<path d="M0 0 C6.875 3.75 6.875 3.75 8 6 C7.21625 6.268125 6.4325 6.53625 5.625 6.8125 C2.71885077 7.84814432 2.71885077 7.84814432 1 11 C-0.32 9.35 -1.64 7.7 -3 6 C-1.35 5.34 0.3 4.68 2 4 C1.34 3.67 0.68 3.34 0 3 C0 2.01 0 1.02 0 0 Z " fill="#343434" transform="translate(240,240)"/>
<path d="M0 0 C0.66 0.433125 1.32 0.86625 2 1.3125 C-2.41550318 4.25616879 -5.61090125 6.3125 -11 6.3125 C-11 5.6525 -11 4.9925 -11 4.3125 C-7.56779432 1.34870949 -4.55683541 -1.04427478 0 0 Z " fill="#E3A237" transform="translate(187,271.6875)"/>
<path d="M0 0 C0 1.65 0 3.3 0 5 C-0.66 5 -1.32 5 -2 5 C-2.99 6.485 -2.99 6.485 -4 8 C-4.66 8 -5.32 8 -6 8 C-8 5 -8 5 -8 2 C-2.25 0 -2.25 0 0 0 Z " fill="#1D1E22" transform="translate(220,264)"/>
<path d="M0 0 C2.125 0.375 2.125 0.375 4 1 C3.34 1 2.68 1 2 1 C2.66 2.65 3.32 4.3 4 6 C2.33333333 7.66666667 0.66666667 9.33333333 -1 11 C-1.22174933 9.54364629 -1.42698698 8.08477044 -1.625 6.625 C-1.74101562 5.81289062 -1.85703125 5.00078125 -1.9765625 4.1640625 C-1.98429688 3.44992188 -1.99203125 2.73578125 -2 2 C-1.34 1.34 -0.68 0.68 0 0 Z " fill="#202020" transform="translate(244,246)"/>
<path d="M0 0 C1.79244141 0.01740234 1.79244141 0.01740234 3.62109375 0.03515625 C5.41740234 0.04869141 5.41740234 0.04869141 7.25 0.0625 C8.17683594 0.07410156 9.10367188 0.08570313 10.05859375 0.09765625 C10.05859375 0.42765625 10.05859375 0.75765625 10.05859375 1.09765625 C6.75859375 1.42765625 3.45859375 1.75765625 0.05859375 2.09765625 C0.05859375 3.41765625 0.05859375 4.73765625 0.05859375 6.09765625 C-1.59140625 6.42765625 -3.24140625 6.75765625 -4.94140625 7.09765625 C-3.90361093 0.12960196 -3.90361093 0.12960196 0 0 Z " fill="#1E1711" transform="translate(230.94140625,163.90234375)"/>
<path d="M0 0 C0.33 0 0.66 0 1 0 C1.64165788 5.26159459 0.20577001 7.68592849 -2.90625 11.6796875 C-3.2671875 12.11539063 -3.628125 12.55109375 -4 13 C-4.99 12.67 -5.98 12.34 -7 12 C-5.62567077 7.99153975 -3.7110562 5.23577676 -1 2 C-0.67 1.34 -0.34 0.68 0 0 Z " fill="#D59E48" transform="translate(153,238)"/>
<path d="M0 0 C2.97 0 5.94 0 9 0 C3.85714286 5.57142857 3.85714286 5.57142857 0 6 C-1.125 2.25 -1.125 2.25 0 0 Z " fill="#4F3E23" transform="translate(220,171)"/>
<path d="M0 0 C0.99 0.33 1.98 0.66 3 1 C3 1.99 3 2.98 3 4 C-3.75 6.125 -3.75 6.125 -6 5 C-5.67 3.68 -5.34 2.36 -5 1 C-3.35 1.33 -1.7 1.66 0 2 C0 1.34 0 0.68 0 0 Z " fill="#1B1A15" transform="translate(260,148)"/>
<path d="M0 0 C2.29013653 3.4352048 2.17842973 4.985331 2 9 C2.66 9 3.32 9 4 9 C3.67 9.99 3.34 10.98 3 12 C2.34 11.34 1.68 10.68 1 10 C1 8.68 1 7.36 1 6 C-0.32 6.33 -1.64 6.66 -3 7 C-3.1875 4.625 -3.1875 4.625 -3 2 C-2.01 1.34 -1.02 0.68 0 0 Z " fill="#856A3F" transform="translate(210,181)"/>
<path d="M0 0 C1.32 0.66 2.64 1.32 4 2 C4 5 4 5 2.5 6.6875 C2.005 7.120625 1.51 7.55375 1 8 C-0.32 7.34 -1.64 6.68 -3 6 C-2.34 5.67 -1.68 5.34 -1 5 C-1.33 4.01 -1.66 3.02 -2 2 C-1.34 2 -0.68 2 0 2 C0 1.34 0 0.68 0 0 Z " fill="#2A2929" transform="translate(243,166)"/>
<path d="M0 0 C2.97 0.99 5.94 1.98 9 3 C9 2.34 9 1.68 9 1 C10.65 1.33 12.3 1.66 14 2 C13.34 3.98 12.68 5.96 12 8 C11.34 8 10.68 8 10 8 C10 6.68 10 5.36 10 4 C9.0925 4.0825 8.185 4.165 7.25 4.25 C4 4 4 4 1.625 2 C0.820625 1.01 0.820625 1.01 0 0 Z " fill="#E39F2D" transform="translate(281,155)"/>
<path d="M0 0 C1.65 0 3.3 0 5 0 C4.01 0.495 4.01 0.495 3 1 C3 1.66 3 2.32 3 3 C3.66 3.33 4.32 3.66 5 4 C4.67 4.33 4.34 4.66 4 5 C5.65 5.33 7.3 5.66 9 6 C9 6.33 9 6.66 9 7 C6.36 7.33 3.72 7.66 1 8 C0.67 5.36 0.34 2.72 0 0 Z " fill="#343434" transform="translate(361,239)"/>
<path d="M0 0 C1.32 0.66 2.64 1.32 4 2 C3.360625 2.78375 2.72125 3.5675 2.0625 4.375 C0.01857687 6.79539281 0.01857687 6.79539281 -1 9 C-1.66 9 -2.32 9 -3 9 C-3.75 7.3125 -3.75 7.3125 -4 5 C-2.0625 2.25 -2.0625 2.25 0 0 Z " fill="#CC8B25" transform="translate(273,192)"/>
<path d="M0 0 C0.33 0.99 0.66 1.98 1 3 C-0.98 4.32 -2.96 5.64 -5 7 C-7 4 -7 4 -8 1 C-6.68 1 -5.36 1 -4 1 C-2.65835921 0.7018576 -1.32148827 0.37756808 0 0 Z " fill="#272828" transform="translate(302,171)"/>
<path d="M0 0 C-3.78756477 3.61139896 -3.78756477 3.61139896 -6 5 C-8.875 4.8125 -8.875 4.8125 -11 4 C-4.45754717 -1.33726415 -4.45754717 -1.33726415 0 0 Z " fill="#463019" transform="translate(228,240)"/>
<path d="M0 0 C1.52519276 0.08937803 3.04681929 0.24537146 4.5625 0.4375 C5.80193359 0.59025391 5.80193359 0.59025391 7.06640625 0.74609375 C7.70449219 0.82988281 8.34257812 0.91367188 9 1 C9 1.66 9 2.32 9 3 C7.68 3.33 6.36 3.66 5 4 C4.67 5.65 4.34 7.3 4 9 C3.67 9 3.34 9 3 9 C3 6.69 3 4.38 3 2 C1.68 1.67 0.36 1.34 -1 1 C-0.67 0.67 -0.34 0.34 0 0 Z " fill="#E69F26" transform="translate(277,145)"/>
<path d="M0 0 C1.65 0 3.3 0 5 0 C4.34 1.65 3.68 3.3 3 5 C1.35 5 -0.3 5 -2 5 C-1.34 3.35 -0.68 1.7 0 0 Z " fill="#181818" transform="translate(229,274)"/>
<path d="M0 0 C0 1.65 0 3.3 0 5 C-0.33 4.34 -0.66 3.68 -1 3 C-2.65 3.33 -4.3 3.66 -6 4 C-6.33 4.99 -6.66 5.98 -7 7 C-8.32 6.67 -9.64 6.34 -11 6 C-9.54550599 4.9944239 -8.08627557 3.99569565 -6.625 3 C-5.40683594 2.1646875 -5.40683594 2.1646875 -4.1640625 1.3125 C-2 0 -2 0 0 0 Z " fill="#372406" transform="translate(203,264)"/>
<path d="M0 0 C2.97 0.99 5.94 1.98 9 3 C8.67 4.32 8.34 5.64 8 7 C7.401875 6.690625 6.80375 6.38125 6.1875 6.0625 C3.91043228 4.89790296 3.91043228 4.89790296 1 4 C0.67 2.68 0.34 1.36 0 0 Z " fill="#2F2F2F" transform="translate(150,151)"/>
<path d="M0 0 C1.32 1.65 2.64 3.3 4 5 C2.71034824 6.37562854 1.37310707 7.70766393 0 9 C-0.66 9 -1.32 9 -2 9 C-1.34 6.03 -0.68 3.06 0 0 Z " fill="#323232" transform="translate(332,256)"/>
<path d="M0 0 C0.99 0 1.98 0 3 0 C3.125 2.875 3.125 2.875 3 6 C2.34 6.66 1.68 7.32 1 8 C0.34 7.67 -0.32 7.34 -1 7 C-0.67 4.69 -0.34 2.38 0 0 Z " fill="#372713" transform="translate(292,164)"/>
<path d="M0 0 C2.97 0 5.94 0 9 0 C8.67 1.32 8.34 2.64 8 4 C7.401875 3.649375 6.80375 3.29875 6.1875 2.9375 C3.89186786 1.66695302 3.89186786 1.66695302 1 3 C-0.66710346 4.49985609 -0.66710346 4.49985609 -2 6 C-1.34 4.02 -0.68 2.04 0 0 Z " fill="#2F2F2F" transform="translate(309,239)"/>
<path d="M0 0 C0.33 0.66 0.66 1.32 1 2 C1.66 2.33 2.32 2.66 3 3 C-0.75 6 -0.75 6 -3 6 C-4.34882408 6.63474075 -5.6846659 7.29848848 -7 8 C-6.02133662 6.85373678 -5.04205413 5.70800212 -4.0625 4.5625 C-3.51722656 3.92441406 -2.97195312 3.28632813 -2.41015625 2.62890625 C-1.63204305 1.73008851 -0.84063472 0.84063472 0 0 Z " fill="#E3A43D" transform="translate(244,224)"/>
<path d="M0 0 C0.99 0.495 0.99 0.495 2 1 C1.01 1.495 1.01 1.495 0 2 C0 1.34 0 0.68 0 0 Z M0 2 C0 2.66 0 3.32 0 4 C1.98 4 3.96 4 6 4 C6 4.33 6 4.66 6 5 C4.20866022 5.05391993 2.41686101 5.09275571 0.625 5.125 C-0.37273437 5.14820313 -1.37046875 5.17140625 -2.3984375 5.1953125 C-5 5 -5 5 -7 3 C-4.53721199 1.768606 -2.7204945 1.92840804 0 2 Z " fill="#313131" transform="translate(231,200)"/>
<path d="M0 0 C1.32 0.99 2.64 1.98 4 3 C2.75 4.5625 2.75 4.5625 1 6 C-1.1875 5.6875 -1.1875 5.6875 -3 5 C-3 4.01 -3 3.02 -3 2 C-2.01 1.34 -1.02 0.68 0 0 Z " fill="#191716" transform="translate(177,196)"/>
<path d="M0 0 C0.99 0.33 1.98 0.66 3 1 C3.33 2.32 3.66 3.64 4 5 C0.37 4.67 -3.26 4.34 -7 4 C-5.68 3.34 -4.36 2.68 -3 2 C-2.01 1.34 -1.02 0.68 0 0 Z " fill="#2C282A" transform="translate(236,167)"/>
<path d="M0 0 C4.75 0.75 4.75 0.75 7 3 C6.34 4.32 5.68 5.64 5 7 C2.47411298 4.63707344 1.11179163 3.33537489 0 0 Z " fill="#232424" transform="translate(180,261)"/>
<path d="M0 0 C0.66 0 1.32 0 2 0 C3.0625 1.8125 3.0625 1.8125 4 4 C3.67 4.99 3.34 5.98 3 7 C3 6.34 3 5.68 3 5 C1.02 5.33 -0.96 5.66 -3 6 C-2 3 -2 3 0 0 Z " fill="#191C1D" transform="translate(238,240)"/>
<path d="M0 0 C-1.32 2.64 -2.64 5.28 -4 8 C-4.33 8 -4.66 8 -5 8 C-5 6.02 -5 4.04 -5 2 C-5.99 1.67 -6.98 1.34 -8 1 C-5.07175348 0.02391783 -3.04386724 -0.08226668 0 0 Z " fill="#3D2E18" transform="translate(282,180)"/>
<path d="M0 0 C0.33 0.66 0.66 1.32 1 2 C1.66 2.33 2.32 2.66 3 3 C1.35 4.32 -0.3 5.64 -2 7 C-2.99 6.01 -3.98 5.02 -5 4 C-3.35 2.68 -1.7 1.36 0 0 Z " fill="#D5A03E" transform="translate(243,158)"/>
<path d="M0 0 C1.32 0 2.64 0 4 0 C4.33 1.32 4.66 2.64 5 4 C2 5 2 5 -1 4 C-0.67 2.68 -0.34 1.36 0 0 Z " fill="#2A1E14" transform="translate(190,271)"/>
<path d="M0 0 C0.66 0.33 1.32 0.66 2 1 C2 1.99 2 2.98 2 4 C-1 6 -1 6 -4 6 C-3.6875 4.125 -3.6875 4.125 -3 2 C-2.01 1.34 -1.02 0.68 0 0 Z " fill="#202020" transform="translate(356,242)"/>
<path d="M0 0 C-0.3125 2.375 -0.3125 2.375 -1 5 C-1.99 5.66 -2.98 6.32 -4 7 C-4.6875 5.1875 -4.6875 5.1875 -5 3 C-3.38441968 0.84589291 -2.74502455 0 0 0 Z " fill="#E69F2B" transform="translate(179,211)"/>
<path d="M0 0 C0.99 0 1.98 0 3 0 C4.125 4.75 4.125 4.75 3 7 C0.69 7 -1.62 7 -4 7 C-4 6.67 -4 6.34 -4 6 C-2.35 6 -0.7 6 1 6 C0.34 4.35 -0.32 2.7 -1 1 C-0.67 0.67 -0.34 0.34 0 0 Z " fill="#191813" transform="translate(188,197)"/>
<path d="M0 0 C1 3 1 3 1 5 C2.32 5.66 3.64 6.32 5 7 C2 9 2 9 -0.1875 8.625 C-0.785625 8.41875 -1.38375 8.2125 -2 8 C-2.20086443 4.28400809 -2.1519437 3.22791555 0 0 Z " fill="#2C2A2C" transform="translate(213,173)"/>
<path d="M0 0 C1.18851563 0.00902344 2.37703125 0.01804688 3.6015625 0.02734375 C4.51679688 0.03894531 5.43203125 0.05054688 6.375 0.0625 C6.375 0.3925 6.375 0.7225 6.375 1.0625 C5.60414063 1.12308594 4.83328125 1.18367187 4.0390625 1.24609375 C2.53472656 1.37177734 2.53472656 1.37177734 1 1.5 C-0.49660156 1.62181641 -0.49660156 1.62181641 -2.0234375 1.74609375 C-4.60427613 1.91215626 -4.60427613 1.91215626 -6.625 3.0625 C-7.285 2.4025 -7.945 1.7425 -8.625 1.0625 C-5.74084117 -0.37957941 -3.20778472 -0.03144887 0 0 Z " fill="#2F2A24" transform="translate(232.625,162.9375)"/>
<path d="M0 0 C-0.66 1.32 -1.32 2.64 -2 4 C-2.99 4 -3.98 4 -5 4 C-5.33 4.66 -5.66 5.32 -6 6 C-6 4.35 -6 2.7 -6 1 C-4 0 -4 0 0 0 Z " fill="#2A2C28" transform="translate(217,261)"/>
<path d="M0 0 C1.99097846 2.98646769 2.94124926 5.59687262 4 9 C3.01 9.495 3.01 9.495 2 10 C0.4375 8.375 0.4375 8.375 -1 6 C-0.6875 2.75 -0.6875 2.75 0 0 Z " fill="#252424" transform="translate(176,251)"/>
<path d="M0 0 C-1.15173355 2.46800047 -2.04783565 4.04783565 -4 6 C-4.99 6 -5.98 6 -7 6 C-5.52522876 2.59668175 -4.14385429 0 0 0 Z " fill="#E59A1F" transform="translate(252,220)"/>
<path d="M0 0 C0.99 0 1.98 0 3 0 C3 1.98 3 3.96 3 6 C1.68 5.67 0.36 5.34 -1 5 C-0.67 3.35 -0.34 1.7 0 0 Z " fill="#1B1913" transform="translate(274,182)"/>
<path d="M0 0 C1.65 0 3.3 0 5 0 C4.01 0.33 3.02 0.66 2 1 C1.67 3.31 1.34 5.62 1 8 C0.01 7.67 -0.98 7.34 -2 7 C-1.34 4.69 -0.68 2.38 0 0 Z " fill="#C18A34" transform="translate(290,163)"/>
<path d="M0 0 C-2.91708924 1.98362069 -4.12380904 1.9876191 -7.75 1.625 C-8.8225 1.41875 -9.895 1.2125 -11 1 C-7.2297564 -1.56376565 -4.32597804 -0.83191885 0 0 Z " fill="#E3AB51" transform="translate(162,285)"/>
<path d="M0 0 C0.66 0.33 1.32 0.66 2 1 C1.34 1.66 0.68 2.32 0 3 C0.33 3.66 0.66 4.32 1 5 C-0.65 5.66 -2.3 6.32 -4 7 C-4.33 6.01 -4.66 5.02 -5 4 C-3.35 2.68 -1.7 1.36 0 0 Z " fill="#CA8927" transform="translate(191,266)"/>
<path d="M0 0 C-0.33 1.65 -0.66 3.3 -1 5 C-2.32 5.33 -3.64 5.66 -5 6 C-4.625 3.5625 -4.625 3.5625 -4 1 C-2 0 -2 0 0 0 Z " fill="#181715" transform="translate(201,267)"/>
<path d="M0 0 C0.66 0.66 1.32 1.32 2 2 C1.9765625 4.8203125 1.9765625 4.8203125 1.625 8.125 C1.51414063 9.22070312 1.40328125 10.31640625 1.2890625 11.4453125 C1.19367188 12.28835938 1.09828125 13.13140625 1 14 C0.67 14 0.34 14 0 14 C-0.19532961 12.2300132 -0.38098882 10.45895721 -0.5625 8.6875 C-0.66691406 7.70136719 -0.77132812 6.71523438 -0.87890625 5.69921875 C-1 3 -1 3 0 0 Z " fill="#E1AB59" transform="translate(137,265)"/>
<path d="M0 0 C0.33 1.32 0.66 2.64 1 4 C0.01 4 -0.98 4 -2 4 C-3.35368596 5.31266518 -4.68799596 6.64567325 -6 8 C-6.66 8 -7.32 8 -8 8 C-6.88333826 4.65001479 -6.25305075 4.20659778 -3.4375 2.3125 C-2.79683594 1.87550781 -2.15617188 1.43851563 -1.49609375 0.98828125 C-1.00238281 0.66214844 -0.50867188 0.33601562 0 0 Z " fill="#4F3212" transform="translate(219,251)"/>
<path d="M0 0 C0.33 0.66 0.66 1.32 1 2 C1.66 2.33 2.32 2.66 3 3 C1.35 4.32 -0.3 5.64 -2 7 C-2.6875 5.1875 -2.6875 5.1875 -3 3 C-1.5625 1.25 -1.5625 1.25 0 0 Z " fill="#D59F47" transform="translate(167,222)"/>
<path d="M0 0 C0.66 0 1.32 0 2 0 C1.67 1.65 1.34 3.3 1 5 C-0.32 5.33 -1.64 5.66 -3 6 C-2.42655063 3.13275314 -2.1385485 2.1385485 0 0 Z " fill="#E29F26" transform="translate(268,199)"/>
<path d="M0 0 C0.99 0.33 1.98 0.66 3 1 C3.33 2.65 3.66 4.3 4 6 C2.35 6 0.7 6 -1 6 C-0.67 4.02 -0.34 2.04 0 0 Z " fill="#151918" transform="translate(280,198)"/>
<path d="M0 0 C0.66 0.33 1.32 0.66 2 1 C1.67 3.31 1.34 5.62 1 8 C0.34 8 -0.32 8 -1 8 C-1.04241723 5.66705225 -1.04092937 3.33297433 -1 1 C-0.67 0.67 -0.34 0.34 0 0 Z " fill="#20180A" transform="translate(205,181)"/>
<path d="M0 0 C1.65 0 3.3 0 5 0 C5.33 1.32 5.66 2.64 6 4 C4.35 3.67 2.7 3.34 1 3 C0.67 2.01 0.34 1.02 0 0 Z " fill="#242524" transform="translate(190,275)"/>
<path d="M0 0 C1.98 0 3.96 0 6 0 C6 0.66 6 1.32 6 2 C5.38125 2.28875 4.7625 2.5775 4.125 2.875 C1.86674235 3.93720042 1.86674235 3.93720042 0 6 C0 4.02 0 2.04 0 0 Z " fill="#23231F" transform="translate(154,261)"/>
<path d="M0 0 C1.5 1.375 1.5 1.375 3 3 C3 3.66 3 4.32 3 5 C0.5 6.625 0.5 6.625 -2 8 C-2 7.01 -2 6.02 -2 5 C-1.34 5 -0.68 5 0 5 C-0.33 4.01 -0.66 3.02 -1 2 C-0.67 1.34 -0.34 0.68 0 0 Z " fill="#3B2B18" transform="translate(190,261)"/>
<path d="M0 0 C0.66 0 1.32 0 2 0 C2.66 2.31 3.32 4.62 4 7 C2.35 6.01 0.7 5.02 -1 4 C-0.67 2.68 -0.34 1.36 0 0 Z " fill="#1F1C0D" transform="translate(163,227)"/>
<path d="M0 0 C0.66 1.32 1.32 2.64 2 4 C-1 6 -1 6 -3.1875 5.625 C-3.785625 5.41875 -4.38375 5.2125 -5 5 C-3.35 3.35 -1.7 1.7 0 0 Z " fill="#E4A843" transform="translate(253,215)"/>
</svg>
